<?xml version="1.0" encoding="UTF-8"?>
<!DOCTYPE svg PUBLIC "-//W3C//DTD SVG 1.1//EN" "http://www.w3.org/Graphics/SVG/1.1/DTD/svg11.dtd">
<!-- Creator: CorelDRAW 2019 (64-Bit) -->
<svg xmlns="http://www.w3.org/2000/svg" xml:space="preserve" width="5842mm" height="3048mm" version="1.1" style="shape-rendering:geometricPrecision; text-rendering:geometricPrecision; image-rendering:optimizeQuality; fill-rule:evenodd; clip-rule:evenodd"
viewBox="0 0 584200 304800"
 xmlns:xlink="http://www.w3.org/1999/xlink"
 xmlns:xodm="http://www.corel.com/coreldraw/odm/2003">
 <defs>
  <style type="text/css">
   <![CDATA[
    .fil0 {fill:#FEFEFE;fill-rule:nonzero}
    .fil2 {fill:url(#id0)}
    .fil1 {fill:url(#id1)}
    .fil3 {fill:url(#id2)}
   ]]>
  </style>
  <linearGradient id="id0" gradientUnits="userSpaceOnUse" x1="263859.33" y1="75245" x2="317268.82" y2="132035.49">
   <stop offset="0" style="stop-opacity:1; stop-color:#0D406A"/>
   <stop offset="1" style="stop-opacity:1; stop-color:#88CED7"/>
  </linearGradient>
  <linearGradient id="id1" gradientUnits="userSpaceOnUse" xlink:href="#id0" x1="300979.79" y1="50986.54" x2="231058.56" y2="115347.16">
  </linearGradient>
  <linearGradient id="id2" gradientUnits="userSpaceOnUse" xlink:href="#id0" x1="295296.07" y1="114013.78" x2="331442.71" y2="83669.14">
  </linearGradient>
 </defs>
 <g id="Layer_x0020_1">
  <metadata id="CorelCorpID_0Corel-Layer"/>
  <path class="fil0" d="M204563.22 163095.28c391.37,386.13 705.46,818.32 905.44,1320.25 199.97,501.72 301.74,1005.95 301.74,1508.71 0,502.97 -101.77,1007.2 -301.74,1508.92 -199.98,501.92 -512.61,935.38 -905.44,1320.25 -837.17,820 -1823.22,1244.87 -2979.93,1244.87 -1056.2,0 -2000.79,-364.98 -2791.47,-1131.59 -1671.41,-1620.32 -3483.95,-2855.55 -5482.01,-3659.01 -1998.07,-803.67 -4074.03,-1207.18 -6211.56,-1207.18 -2187.78,0 -4263.53,416.29 -6223.91,1257.44 -1960.37,841.36 -3684.34,1999.32 -5167.92,3470.34 -1483.58,1471.02 -2654.1,3194.99 -3520.59,5180.5 -866.28,1985.5 -1307.68,4136.64 -1307.68,6437.71 0,2187.79 415.23,4262.5 1232.3,6223.93 817.06,1961.42 1949.9,3685.39 3394.74,5180.49 1444.84,1495.31 3157.08,2692.01 5117.67,3583.63 1960.16,891.61 4098.94,1332.81 6387.44,1332.81 2062.15,0 3986.51,-266.77 5771.41,-792.15 1796.2,-528.72 3495.46,-1458.66 5104.89,-2816.6l0 -5293.57 -5696.02 0c-550.93,0 -1082.58,-114.12 -1584.3,-339.43 -501.72,-225.11 -934.54,-526.43 -1282.35,-905.44 -354.09,-385.71 -630.07,-830.89 -842.61,-1332.81 -212.54,-501.72 -326.87,-1031.08 -326.87,-1596.87 0,-553.23 112.03,-1070.86 326.87,-1571.74 210.23,-490.2 491.66,-918.83 842.61,-1282.56 350.95,-363.3 780.63,-654.99 1282.35,-867.53 501.72,-212.75 1031.07,-326.87 1584.3,-326.87l9769.84 0c578.56,0 1120.27,114.33 1621.99,326.87 501.71,212.75 944.38,491.45 1320.25,842.4 376.28,350.95 679.28,779.59 892.86,1270 213.59,490.41 314.31,1020.81 314.31,1596.87l0 11303.9c0,651.44 -126.9,1220.79 -377.12,1697.38 -250.44,476.59 -547.79,964.06 -980.82,1357.94 -2772.42,2522.4 -5696.44,4290.98 -8688.51,5369.16 -3003.18,1082.17 -6099.11,1597.92 -9304.56,1584.3 -2161.19,-9.21 -4263.53,-302.99 -6286.94,-892.87 -2022.98,-589.87 -3935.2,-1412.17 -5720.94,-2464.4 -1795.37,-1057.87 -3437.04,-2324.1 -4916.43,-3809.77 -1485.88,-1491.96 -2759.43,-3141.8 -3822.33,-4954.14 -1059.76,-1806.68 -1873.69,-3759.52 -2464.61,-5846.8 -590.92,-2087.27 -892.66,-4262.49 -892.66,-6538.44 0,-3344.7 622.12,-6504.93 1873.48,-9493.24 1248.63,-2982.03 2973.65,-5589.03 5167.71,-7833.35 2194.06,-2244.33 4779.28,-4012.06 7733.03,-5318.7 2953.76,-1306.43 6135.96,-1961.64 9556.05,-1961.64 3420.08,0 6604.59,611.86 9530.91,1835.79 2930.72,1225.82 5599.07,3066.84 8047.13,5482.24zm50500.5 41754.7c-955.48,0 -1748.88,-202.49 -2376.45,-590.92 -627.14,-388.43 -1110.43,-879.89 -1433.32,-1471.02 -166.68,-305.3 -291.06,-622.33 -374.4,-954.01 -318.7,1011.6 -1011.18,1748.47 -2050.63,2226.73 -530.4,243.74 -1106.45,377.13 -1735.27,377.13 -804.71,0 -1547.65,-214.64 -2225.47,-641.18 -678.24,-426.54 -1217.44,-1021.02 -1546.61,-1798.09l-2866.85 -6764.8 -21576.49 0 -2829.16 6764.8c-333.57,797.8 -855.81,1409.24 -1521.48,1823.22 -665.25,413.98 -1408.19,616.05 -2212.91,616.05 -553.22,0 -1146.24,-124.38 -1772.96,-377.13 -553.23,-223.22 -1006.78,-541.71 -1357.94,-930.56 -350.95,-388.85 -603.48,-817.28 -767.02,-1295.12 -163.54,-477.85 -225.52,-994.43 -188.67,-1546.61 36.85,-552.39 162.7,-1094.32 389.9,-1622l17238.61 -40022.35c347.39,-806.6 856.02,-1421.6 1508.92,-1848.36 652.9,-426.54 1408.19,-641.17 2263.16,-641.17 804.71,0 1534.88,214.63 2187.78,641.17 652.9,426.76 1169.69,1027.73 1508.91,1810.66l17351.9 40060.05c112.45,259.45 201.44,518.68 266.98,777.29 62.61,-197.88 140.51,-391.16 234.11,-578.78 300.48,-602.23 768.49,-1120.27 1383.28,-1534.04 614.79,-413.56 1383.9,-671.54 2313.41,-704.21 1155.25,-40.41 2252.28,-265.3 3281.88,-729.12 1029.82,-463.82 1923.74,-1081.33 2678.19,-1835.79 754.46,-754.46 1346.85,-1635.81 1772.97,-2653.07 426.12,-1017.04 641.17,-2113.03 641.17,-3269.32l0 -28137.37c0,-577.94 100.51,-1131.8 301.74,-1647.33 201.23,-515.54 490.41,-955.48 854.97,-1332.82 364.77,-377.12 804.92,-678.86 1307.69,-905.22 502.97,-226.36 1043.63,-339.44 1634.76,-339.44 1206.96,0 2200.34,402.26 2967.36,1219.54 767.03,817.27 1156.71,1825.31 1156.71,3005.27l0 28477.01c0,2261.08 -423.4,4391.7 -1282.55,6374.9 -860.83,1987.39 -2035.13,3726.23 -3508.03,5205.42 -1479.39,1485.46 -3220.11,2654.53 -5218.18,3508.24 -1997.64,853.72 -4136.64,1282.35 -6400.01,1282.35zm-32903.82 -17839.41l14899.86 0 -7393.39 -17766.75 -7506.47 17766.75zm61141.02 17427.32c-1084.89,0 -1986.55,-528.1 -2703.32,-1270 -716.77,-741.89 -1081.33,-1672.25 -1081.33,-2803.83l0 -40097.95c0,-578.36 113.71,-1119.65 326.87,-1621.99 213.17,-502.56 503.6,-943.55 867.74,-1307.69 364.14,-363.94 805.34,-654.16 1307.69,-867.54 502.34,-213.16 1043.42,-314.3 1634.55,-314.3l26417.53 0c578.36,0 1119.65,113.49 1609.43,326.87 489.78,213.16 905.64,503.6 1257.22,867.53 351.58,364.14 642.01,805.14 855.18,1307.69 213.16,502.34 314.3,1043.64 314.3,1621.99 0,565.79 -101.14,1094.52 -314.3,1596.87 -213.17,502.55 -503.18,943.12 -855.18,1307.69 -352,364.56 -767.65,654.36 -1257.22,867.53 -489.99,213.17 -1032.12,327.08 -1609.43,327.08l-22331.15 0 0 11165.49 17464.98 0c578.35,0 1119.01,100.72 1609.42,314.31 490.41,213.58 918.63,515.95 1282.56,892.66 364.14,376.71 654.36,817.91 867.53,1320.25 213.17,502.56 314.52,1043.64 314.52,1622.2 0,553.23 -100.93,1068.77 -314.52,1558.97 -213.58,490.2 -503.6,918.42 -867.53,1282.56 -364.14,364.14 -792.78,654.37 -1282.56,854.97 -489.99,200.6 -1032.12,301.95 -1609.42,301.95l-17464.98 0 0 12523.44 22331.15 0c578.36,0 1119.65,113.49 1609.43,326.87 489.78,213.16 908.78,500.67 1257.22,880.09 354.72,386.55 642.01,830.48 855.18,1333.03 213.16,502.13 314.3,1043.43 314.3,1621.99 0,1194.41 -374.82,2166.22 -1144.35,2929.68 -763.25,756.98 -1736.11,1131.59 -2891.78,1131.59l-26769.73 0zm37670.95 -44171.78c0,-578.36 113.91,-1119.44 327.07,-1621.99 213.17,-502.35 502.98,-943.13 867.54,-1307.69 364.56,-364.56 792.14,-653.74 1295.12,-867.54 502.97,-213.79 1031.07,-314.3 1584.29,-314.3l13843.66 0c2489.52,0 4828.7,440.57 7016.27,1332.81 2187.15,892.25 4111.93,2125.6 5758.63,3696.71 1646.7,1571.32 2940.35,3434.12 3885.36,5582.74 940.19,2137.95 1408.2,4463.73 1408.2,6940.69 0,1684.82 -225.11,3307.86 -678.87,4853.42 -450.41,1534.05 -1094.31,2955.44 -1923.73,4249.93 -829.42,1294.71 -1811.07,2465.24 -2955.01,3508.25 -1143.52,1043.01 -2426.7,1923.73 -3834.9,2653.07l6978.37 8411.7c374.4,451.25 742.31,855.81 943.12,1370.72 200.6,514.91 301.74,1043.43 289.18,1571.53 -12.56,528.1 -126.27,1044.26 -326.87,1546.61 -200.6,502.55 -509.88,937.05 -905.43,1320.25 -408.12,395.34 -830.26,692.27 -1295.12,880.31 -464.45,188.04 -942.92,289.17 -1420.76,289.17 -1031.07,0 -1998.28,-333.36 -2715.88,-1169.48l-10461.48 -12184.01 -9455.53 0 0 9355.05c0,552.18 -113.5,1081.96 -326.87,1584.3 -213.17,502.34 -500.67,933.91 -880.1,1282.35 -386.54,354.72 -816.86,631.75 -1307.68,842.62 -501.51,215.47 -1031.07,326.87 -1609.43,326.87 -565.79,0 -1094.52,-113.71 -1596.86,-326.87 -502.55,-213.17 -943.54,-491.04 -1307.68,-842.62 -363.94,-351.58 -654.37,-780.21 -867.54,-1282.35 -213.16,-502.55 -327.07,-1031.07 -327.07,-1584.3l0 -40097.95zm8223.23 4111.73l0 18407.92 9769.84 0c1357.94,0 2627.51,-241.64 3809.98,-716.76 1192.93,-479.31 2222.75,-1123 3105.56,-1936.3 876.54,-807.65 1574.67,-1772.34 2087.27,-2866.86 517.42,-1104.78 767.02,-2275.74 767.02,-3533.17 0,-1282.56 -254.41,-2488.9 -767.02,-3621.32 -517.42,-1142.47 -1207.59,-2137.95 -2087.27,-2992.5 -879.67,-854.34 -1912.63,-1520.01 -3105.56,-2011.89 -1182.47,-487.69 -2440.32,-729.12 -3772.08,-729.12l-9807.74 0zm60448.11 30855.98l-21576.48 0 -2829.16 6764.8c-333.78,798.22 -855.6,1409.03 -1521.48,1823.22 -665.47,414.19 -1408.2,616.05 -2212.91,616.05 -553.23,0 -1146.03,-124.18 -1772.97,-377.13 -553.43,-223.42 -1006.57,-541.5 -1357.94,-930.56 -351.15,-389.06 -603.48,-817.28 -767.02,-1295.12 -163.54,-477.85 -225.73,-994.22 -188.66,-1546.61 37.06,-552.6 162.7,-1094.32 389.89,-1622l17238.62 -40022.35c347.39,-806.6 855.8,-1421.39 1508.91,-1848.36 653.11,-426.75 1408.2,-641.17 2263.17,-641.17 804.71,0 1534.67,214.42 2187.78,641.17 653.11,426.97 1169.48,1027.31 1508.91,1810.66l17351.9 40060.05c456.06,1052.85 527.47,2100.68 213.79,3130.91 -313.67,1030.45 -1009.92,1779.26 -2062.14,2263.38 -530.61,243.95 -1106.45,377.13 -1735.27,377.13 -804.72,0 -1547.45,-214.43 -2225.48,-641.18 -678.44,-426.75 -1217.43,-1021.02 -1546.6,-1798.09l-2866.86 -6764.8zm-18294.81 -8223.25l14899.86 0 -7393.39 -17766.75 -7506.47 17766.75z"/>
  <path class="fil0" d="M239919.3 246578.15c3295.56,0 5931.86,-1129.97 7815.09,-2385.4 910.16,-564.89 1349.6,-1349.6 1349.6,-2448.12l0 -5869.14c0,-1098.52 -847.43,-1945.95 -1945.95,-1945.95l-6120.22 0c-941.61,0 -1726.14,753.25 -1726.14,1694.87 0,941.61 784.53,1663.41 1726.14,1663.41l4331.17 0 0 4111.55c-1349.42,1004.34 -3232.65,1663.41 -5304.05,1663.41 -4488.26,0 -7469.82,-3326.83 -7469.82,-7846.36l0 -62.73c0,-4205.72 3075.74,-7752.36 7124.55,-7752.36 2385.22,0 3923.18,690.52 5335.51,1726.14 313.81,219.81 690.53,439.44 1192.7,439.44 1067.06,0 1914.5,-878.71 1914.5,-1914.5 0,-753.25 -407.99,-1286.88 -784.53,-1569.24 -2008.86,-1443.78 -4205.72,-2228.49 -7501.27,-2228.49 -6622.39,0 -11330.27,5210.06 -11330.27,11361.74l0 62.72c0,6402.76 4519.52,11299.01 11392.99,11299.01zm11848.7 -2134.31c0,1067.07 847.43,1914.5 1945.95,1914.5 1067.07,0 1914.5,-847.43 1914.5,-1914.5l0 -5900.59 4864.79 0 5335.69 6810.75c439.44,596.35 1004.34,1004.34 1883.05,1004.34 941.61,0 1851.77,-721.8 1851.77,-1789.05 0,-596.17 -251.08,-1004.34 -627.62,-1475.06l-4205.72 -5304.24c2950.29,-910.16 4990.25,-3044.29 4990.25,-6559.66l0 -62.73c0,-1914.5 -659.08,-3546.64 -1820.32,-4739.16 -1412.33,-1381.06 -3577.92,-2197.04 -6339.85,-2197.04l-7846.54 0c-1098.52,0 -1945.95,847.43 -1945.95,1945.95l0 18266.49zm3860.45 -9321.6l0 -7375.65 5618.05 0c2856.11,0 4550.98,1286.88 4550.98,3640.82l0 62.73c0,2228.31 -1757.6,3672.1 -4519.53,3672.1l-5649.5 0zm26976.69 11455.91c6748.02,0 11518.63,-5178.78 11518.63,-11361.73l0 -62.73c0,-6183.13 -4707.88,-11299.01 -11455.72,-11299.01 -6748.02,0 -11518.63,5178.79 -11518.63,11361.74l0 62.72c0,6182.95 4707.89,11299.01 11455.72,11299.01zm62.91 -3578.1c-4362.62,0 -7469.82,-3515.19 -7469.82,-7783.63l0 -62.73c0,-4268.45 3044.29,-7752.36 7406.91,-7752.36 4362.63,0 7469.82,3546.64 7469.82,7815.09l0 62.72c0,4268.45 -3044.29,7720.91 -7406.91,7720.91zm22802.25 3546.65c5743.68,0 9447.05,-3295.56 9447.05,-9855.23l0 -10702.48c0,-1067.06 -847.26,-1914.5 -1914.5,-1914.5 -1098.52,0 -1945.96,847.44 -1945.96,1914.5l0 10890.84c0,4048.82 -2102.85,6088.95 -5523.86,6088.95 -3452.46,0 -5555.32,-2165.76 -5555.32,-6245.85l0 -10733.94c0,-1067.06 -847.26,-1914.5 -1914.5,-1914.5 -1098.52,0 -1945.95,847.44 -1945.95,1914.5l0 10890.84c0,6371.31 3640.82,9666.87 9353.04,9666.87zm12413.59 -2102.86c0,1067.07 847.44,1914.5 1945.96,1914.5 1067.06,0 1914.5,-847.43 1914.5,-1914.5l0 -5304.24 4362.62 0c4833.51,0 8788.14,-2573.58 8788.14,-7501.1l0 -62.91c0,-4425.35 -3201.37,-7344.19 -8348.7,-7344.19l-6716.56 0c-1098.52,0 -1945.96,847.43 -1945.96,1945.95l0 18266.49zm3860.46 -8787.98l0 -7909.27 4488.25 0c2887.39,0 4739.16,1349.6 4739.16,3923.18l0 62.73c0,2291.22 -1820.32,3923.36 -4739.16,3923.36l-4488.25 0z"/>
  <path class="fil0" d="M169163.65 266456.97c601.09,0 1178.43,80.19 1733.19,237 554.17,157.4 1075.08,374.19 1559.17,654.55 484.08,280.94 925.4,621.29 1322.76,1018.65 397.36,397.37 737.71,841.65 1021.62,1325.74 283.92,484.08 504.28,1004.99 661.09,1559.76 156.8,554.17 236.99,1132.1 236.99,1736.16 0,808.39 -136.61,1572.83 -413.99,2290.94 -276.79,718.1 -661.09,1362.56 -1148.74,1930.39 -487.64,567.24 -1062.01,1044.79 -1723.09,1429.09 -661.09,383.7 -1375.63,640.89 -2143.63,768l0 1416.01c0,153.25 -30.29,294.02 -87.31,424.1 -56.43,130.08 -133.05,243.52 -233.43,340.34 -103.35,96.82 -217.39,174.03 -347.47,230.46 -133.64,57.02 -270.26,86.72 -417.56,86.72 -156.81,0 -296.98,-29.7 -430.63,-86.72 -130.08,-56.43 -243.52,-133.64 -347.47,-230.46 -99.78,-96.82 -176.41,-210.26 -233.43,-340.34 -57.02,-130.08 -86.72,-270.85 -86.72,-424.1l0 -1405.92c-775.12,-127.11 -1492.63,-380.73 -2157.28,-761.46 -664.65,-380.74 -1239.02,-858.29 -1723.1,-1426.12 -484.08,-567.24 -864.82,-1215.26 -1138.63,-1939.9 -273.82,-724.64 -411.03,-1492.64 -411.03,-2301.03 0,-604.06 76.62,-1181.99 230.46,-1736.16 153.84,-554.77 370.63,-1075.68 650.99,-1559.76 280.94,-484.09 617.72,-928.37 1012.12,-1325.74 397.36,-397.36 834.52,-737.71 1315.63,-1018.65 481.12,-280.36 1002.02,-497.15 1559.76,-654.55 557.14,-156.81 1135.07,-237 1739.73,-237zm10.1 2184.02c-601.1,0 -1165.96,113.45 -1693.4,340.94 -527.45,226.89 -984.8,537.54 -1375.63,931.34 -390.83,394.39 -697.91,854.72 -925.4,1382.76 -226.9,527.44 -340.34,1091.71 -340.34,1692.8 0,514.38 80.18,998.46 243.52,1455.82 163.94,457.95 387.86,871.94 674.75,1239.01 287.48,367.67 627.82,681.28 1025.19,942.04 394.39,260.15 827.99,450.82 1302.56,570.8l0 -1182c0,-147.3 29.7,-287.48 86.72,-421.12 57.02,-133.05 133.65,-250.06 233.43,-346.88 103.95,-96.81 217.39,-174.03 347.47,-230.46 133.65,-57.02 273.82,-83.75 430.63,-83.75 147.3,0 283.92,26.73 417.56,83.75 130.08,56.43 244.12,133.65 347.47,230.46 100.38,96.82 177,213.83 233.43,346.88 57.02,133.64 87.31,273.82 87.31,421.12l0 1182c467.45,-119.98 898.08,-310.65 1291.88,-570.8 397.36,-260.76 741.86,-577.93 1028.75,-948.57 290.45,-370.64 517.34,-781.66 681.28,-1235.45 163.34,-454.39 243.52,-938.47 243.52,-1452.85 0,-601.09 -113.44,-1165.36 -340.34,-1692.8 -226.89,-528.04 -537.54,-988.37 -931.93,-1382.76 -390.24,-393.8 -851.16,-704.45 -1379.19,-931.34 -527.45,-227.49 -1091.71,-340.94 -1689.24,-340.94zm10882.65 5149.1c0,494.78 100.38,955.1 300.55,1382.76 200.76,427.66 471.02,798.29 811.36,1115.47 337.37,317.18 731.77,567.83 1179.02,751.37 447.26,183.54 915.31,277.38 1402.36,277.38 484.68,0 942.03,-90.28 1369.09,-274.41 427.66,-183.54 798.29,-433.6 1108.94,-751.37 314.21,-317.18 564.27,-690.78 747.8,-1114.88 184.13,-427.65 273.82,-888.57 273.82,-1382.75l0 -6164.2c0,-153.83 30.29,-297.57 87.31,-427.65 56.43,-130.08 133.05,-243.53 233.43,-340.94 103.35,-96.82 217.4,-169.87 347.47,-223.33 133.65,-53.46 273.82,-80.19 430.63,-80.19 146.71,0 287.48,26.73 421.12,80.19 133.05,53.46 250.06,126.51 346.88,223.33 96.82,97.41 174.03,210.86 230.46,340.94 57.02,130.08 86.72,273.82 86.72,427.65l0 6170.73c0,781.66 -150.28,1519.37 -447.26,2214.31 -296.98,694.35 -701.47,1299.01 -1215.85,1813.39 -517.34,514.37 -1118.44,921.24 -1809.82,1221.79 -694.34,300.54 -1432.64,450.82 -2220.24,450.82 -791.76,0 -1539.57,-150.28 -2247.57,-450.82 -708.01,-300.55 -1332.27,-707.42 -1870.41,-1221.79 -537.54,-517.94 -964.6,-1122.01 -1278.81,-1816.95 -313.61,-694.35 -471.01,-1432.65 -471.01,-2213.72l0 -6158.25c0,-146.71 30.29,-286.89 87.31,-420.53 56.43,-133.64 133.05,-247.09 229.87,-343.91 97.41,-96.82 210.86,-177 340.93,-234.02 133.65,-56.43 273.82,-83.16 430.63,-83.16 147.3,0 287.48,26.73 421.12,83.16 133.05,57.02 250.06,133.64 354.01,230.46 99.78,96.81 177,213.83 233.43,347.47 57.02,133.64 86.71,273.82 86.71,420.53l0 6151.12zm19065.15 3146.25l-5730.59 0 -751.37 1803.29c-59.99,140.17 -143.74,260.15 -250.65,360.53 -106.92,99.79 -223.34,173.44 -354.01,220.37 -130.08,46.92 -270.25,66.52 -420.53,63.55 -150.27,-3.56 -296.98,-33.86 -437.75,-93.85 -146.71,-59.99 -266.69,-143.74 -360.54,-247.09 -93.25,-103.35 -160.37,-216.8 -203.73,-343.9 -43.36,-127.11 -59.99,-263.73 -49.89,-410.44 10.1,-147.3 43.36,-291.04 103.35,-431.22l4588.39 -10639.14c93.85,-213.83 226.9,-377.17 397.37,-490.62 170.46,-114.04 367.66,-170.47 594.56,-170.47 213.82,0 407.46,56.43 580.9,170.47 174.03,113.45 307.08,273.82 400.92,480.52l4608 10649.24c120.57,280.95 140.77,557.74 57.02,831.56 -83.75,273.82 -263.72,474.58 -537.54,601.09 -140.18,59.99 -283.92,90.29 -430.63,93.85 -147.3,2.97 -287.48,-20.19 -421.12,-70.09 -133.64,-50.49 -253.62,-123.54 -360.54,-220.95 -106.91,-96.82 -193.63,-213.24 -260.75,-353.41l-760.87 -1803.29zm-4849.15 -2184.02l3947.51 0 -1963.66 -4718.48 -1983.85 4718.48zm11901.91 2444.18l5560.12 10.1c153.25,0 296.99,30.29 427.07,86.71 130.67,57.03 244.12,133.65 340.93,234.03 96.82,103.35 173.44,220.36 230.46,354 56.43,133.65 83.16,273.82 83.16,420.53 0,156.81 -26.73,296.99 -83.16,430.63 -57.02,130.67 -133.64,244.12 -230.46,340.94 -96.81,96.81 -210.26,173.43 -340.93,230.45 -130.08,56.43 -273.82,83.16 -427.07,76.63l-6655.39 0c-43.36,0 -80.19,0 -117.02,0 -36.82,0 -73.65,-6.54 -106.91,-20.2 -26.73,0 -53.46,-6.53 -80.19,-19.6 -226.89,-60.58 -417.55,-184.13 -564.26,-371.23 -146.71,-186.5 -220.37,-406.87 -220.37,-661.08l0 -10678.95c0,-147.3 30.3,-287.48 86.72,-421.12 57.02,-133.64 133.65,-247.09 230.46,-340.34 96.82,-93.85 210.27,-170.47 340.35,-227.49 133.64,-56.43 273.81,-83.16 431.22,-83.16 146.71,0 286.88,26.73 420.52,83.16 133.65,57.02 250.66,133.64 354.01,227.49 100.38,93.25 177,206.7 234.02,340.34 56.43,133.64 86.72,273.82 86.72,421.12l0 9567.04zm11230.13 1111.91c0,153.83 -30.29,294.01 -86.72,424.09 -57.02,130.67 -133.64,244.12 -234.02,337.37 -103.35,93.85 -220.36,166.91 -354.01,223.93 -133.64,56.42 -273.82,86.72 -420.53,86.72 -157.4,0 -297.57,-30.3 -431.22,-86.72 -130.07,-57.02 -243.52,-130.08 -340.34,-223.93 -96.81,-93.25 -173.44,-206.7 -230.46,-337.37 -56.42,-130.08 -86.72,-270.26 -86.72,-424.09l0 -10678.95c0,-153.83 30.3,-297.57 86.72,-427.65 57.02,-130.08 133.65,-243.53 230.46,-340.94 96.82,-96.82 210.27,-169.87 340.34,-223.33 133.65,-53.46 273.82,-80.19 431.22,-80.19 146.71,0 286.89,26.73 420.53,80.19 133.65,53.46 250.66,126.51 354.01,223.33 100.38,97.41 177,210.86 234.02,340.94 56.43,130.08 86.72,273.82 86.72,427.65l0 10678.95zm7984.69 -9567.04l0 9567.04c0,153.83 -30.29,297.57 -86.71,427.65 -57.03,130.08 -133.65,240.56 -234.03,333.81 -103.35,93.85 -220.36,170.47 -354,226.9 -133.64,57.02 -276.79,83.75 -430.63,83.75 -150.27,0 -287.48,-26.73 -421.12,-83.75 -130.08,-56.43 -243.53,-133.05 -340.34,-226.9 -96.82,-93.25 -173.44,-203.73 -230.46,-333.81 -56.43,-130.08 -86.72,-273.82 -86.72,-427.65l0 -9567.04 -3085.66 0c-153.84,0 -294.01,-30.29 -424.09,-86.72 -130.08,-57.02 -243.53,-133.64 -337.37,-234.02 -93.26,-103.35 -166.91,-216.8 -223.34,-347.47 -57.02,-133.65 -87.31,-273.82 -87.31,-430.63 0,-146.71 30.29,-286.89 87.31,-420.53 56.43,-133.64 130.08,-250.65 223.34,-347.47 93.84,-96.82 207.29,-173.44 337.37,-230.46 130.08,-57.02 270.25,-86.72 424.09,-86.72l8345.23 0c146.71,0 286.89,29.7 420.53,86.72 133.65,57.02 250.66,133.64 347.47,234.03 96.82,103.35 173.44,220.36 230.46,354 56.43,133.05 83.16,273.82 83.16,420.53 0,156.81 -26.73,296.98 -83.16,430.63 -57.02,130.07 -133.64,244.12 -230.46,340.93 -96.81,96.82 -213.82,173.44 -347.47,230.46 -133.64,56.43 -273.82,86.72 -420.53,86.72l-3075.56 0zm10315.42 3526.39l3930.28 -5339.77c100.38,-113.45 213.83,-200.17 340.94,-260.75 126.51,-59.99 260.16,-96.82 397.36,-106.32 136.62,-10.1 270.26,6.53 403.9,49.89 133.64,43.36 257.19,113.45 370.64,206.7 213.82,187.1 340.93,421.12 380.73,705.04 39.79,283.92 -46.92,567.24 -260.75,848.19l-4457.72 5790.58 0 4147.09c0,153.83 -30.3,294.01 -86.72,424.09 -57.02,130.67 -133.64,244.12 -234.02,337.37 -103.36,93.85 -220.37,166.91 -354.01,223.93 -133.64,56.42 -273.82,86.72 -420.53,86.72 -156.8,0 -297.57,-30.3 -430.62,-86.72 -130.68,-57.02 -244.12,-130.08 -340.94,-223.93 -96.82,-93.25 -173.44,-206.7 -230.46,-337.37 -56.43,-130.08 -86.72,-270.26 -86.72,-424.09l0 -4137.58 -4508.21 -5780.49c-93.25,-113.45 -160.37,-239.97 -203.73,-377.17 -43.36,-136.62 -59.99,-273.82 -49.89,-414 10.1,-140.17 46.33,-277.38 109.88,-411.02 63.56,-133.05 150.28,-250.06 263.73,-350.44 106.91,-100.39 230.45,-173.44 371.22,-220.37 140.18,-46.92 280.36,-66.52 420.53,-56.42 140.18,9.5 277.39,46.33 407.46,109.88 130.08,63.55 240.56,156.81 333.81,277.38l3933.84 5319.58zm14369.25 6040.65c0,153.83 -30.29,294.01 -86.72,424.09 -57.02,130.67 -133.64,244.12 -234.02,337.37 -103.35,93.85 -220.37,166.91 -354.01,223.93 -133.64,56.42 -273.82,86.72 -420.53,86.72 -157.4,0 -297.57,-30.3 -431.22,-86.72 -130.07,-57.02 -243.52,-130.08 -340.34,-223.93 -96.82,-93.25 -173.44,-206.7 -230.46,-337.37 -56.42,-130.08 -86.72,-270.26 -86.72,-424.09l0 -10678.95c0,-153.83 30.3,-297.57 86.72,-427.65 57.02,-130.08 133.64,-243.53 230.46,-340.94 96.82,-96.82 210.27,-169.87 340.34,-223.33 133.65,-53.46 273.82,-80.19 431.22,-80.19 146.71,0 286.89,26.73 420.53,80.19 133.64,53.46 250.66,126.51 354.01,223.33 100.38,97.41 177,210.86 234.02,340.94 56.43,130.08 86.72,273.82 86.72,427.65l0 10678.95zm7049.79 -4287.86c-641.48,-119.98 -1232.48,-280.35 -1767.05,-480.52 -533.98,-200.16 -998.46,-454.38 -1388.7,-761.46 -390.83,-307.08 -694.94,-671.19 -911.73,-1088.74 -217.4,-417.56 -327.28,-901.65 -327.28,-1455.82 0,-561.3 117.01,-1072.11 350.44,-1533.03 236.99,-460.92 551.2,-858.28 945,-1192.09 397.37,-333.81 851.75,-594.56 1366.12,-778.1 517.35,-183.53 1054.89,-273.82 1619.16,-273.82 394.39,0 785.22,40.39 1168.92,120.58 387.27,80.18 751.37,200.16 1092.31,356.97 340.34,156.81 650.99,357.57 931.34,594.56 280.95,237 510.81,510.82 691.38,821.46 59.99,100.38 96.81,203.73 106.91,310.65 10.1,106.91 3.56,210.26 -20.19,310.64 -23.17,99.79 -59.99,193.63 -109.89,283.92 -50.49,89.69 -110.48,166.9 -177,226.89 -73.65,73.65 -163.93,133.65 -270.85,179.97 -106.91,46.93 -220.36,73.66 -340.34,83.75 -120.58,10.1 -244.12,0 -370.64,-30.29 -127.11,-29.7 -250.65,-83.15 -370.63,-163.34 -180.57,-153.84 -351.04,-287.48 -510.81,-400.93 -160.37,-113.45 -327.28,-210.26 -497.75,-286.88 -170.47,-77.22 -357.57,-133.65 -564.27,-170.47 -203.73,-36.83 -440.72,-53.46 -718.1,-53.46 -300.55,0 -577.93,36.83 -838.09,110.48 -257.19,73.06 -481.11,179.97 -671.18,320.15 -190.66,140.77 -343.91,307.67 -457.95,501.31 -113.45,193.63 -169.87,410.43 -169.87,650.98 0,280.36 73.05,510.82 220.36,691.38 146.71,179.97 350.44,330.25 611.19,453.79 263.72,123.55 567.24,227.49 918.27,310.65 350.44,83.75 731.17,170.47 1138.64,257.19 471.01,120.57 924.8,267.28 1369.09,444.28 447.26,177.01 841.65,407.47 1189.12,687.82 350.44,280.35 630.79,621.29 844.62,1025.19 213.83,403.89 320.74,888.57 320.74,1449.28 0,561.3 -117.01,1082.21 -351.03,1562.73 -236.99,481.11 -557.74,898.67 -961.63,1255.64 -407.46,357.57 -885.01,637.92 -1435.62,838.09 -551.2,200.76 -1148.73,300.55 -1790.22,300.55 -500.71,0 -981.82,-66.53 -1445.71,-196.61 -464.48,-130.67 -888.58,-307.67 -1272.28,-534.57 -384.29,-223.92 -721.67,-487.64 -1008.55,-794.72 -287.48,-304.12 -510.82,-627.83 -671.19,-968.17 -80.18,-174.03 -123.54,-337.37 -133.64,-491.21 -10.1,-153.25 6.53,-294.02 49.89,-420.53 43.36,-127.11 110.48,-240.56 200.17,-337.38 90.28,-96.81 190.66,-173.43 304.11,-234.02 280.35,-146.71 537.54,-179.97 771.57,-96.81 233.42,83.74 477.54,287.48 731.17,608.22 273.82,406.87 627.82,721.07 1058.45,945 431.22,223.33 928.37,337.37 1496.2,337.37 280.35,0 557.73,-36.82 827.99,-110.47 270.85,-73.66 514.37,-183.54 731.77,-327.28 216.79,-143.74 390.23,-317.18 520.9,-524.47 130.08,-206.7 193.64,-443.7 193.64,-710.98 0,-294.02 -67.12,-534.57 -200.76,-718.11 -133.05,-183.54 -307.08,-330.84 -520.91,-444.29 -213.24,-113.45 -453.79,-203.73 -714.54,-270.25 -260.16,-67.12 -520.91,-130.08 -781.07,-190.67zm17381.25 -7563.58c601.09,0 1178.43,80.19 1733.19,237 554.17,157.4 1075.08,374.19 1559.17,654.55 484.08,280.94 925.4,621.29 1322.76,1018.65 397.36,397.37 737.71,838.09 1021.62,1322.17 283.92,484.68 504.28,1005.59 661.09,1559.76 156.81,554.17 236.99,1132.1 236.99,1733.2 0,905.21 -173.44,1749.83 -517.34,2538.02 -343.91,788.2 -811.36,1478.98 -1402.36,2070.57 -591.59,591 -1282.37,1058.45 -2074.13,1398.8 -794.73,340.93 -1639.35,510.81 -2540.99,510.81 -604.66,0 -1182.59,-76.62 -1739.73,-230.46 -557.73,-153.25 -1078.64,-373.61 -1559.76,-657.52 -481.11,-283.92 -918.27,-624.26 -1315.63,-1021.63 -394.4,-397.96 -731.18,-838.68 -1012.12,-1319.2 -280.35,-481.11 -497.15,-998.46 -650.99,-1553.22 -153.84,-554.18 -230.46,-1131.51 -230.46,-1736.17 0,-601.1 76.62,-1179.03 230.46,-1733.2 153.84,-554.17 370.64,-1075.08 650.99,-1559.76 280.94,-484.08 617.72,-924.8 1012.12,-1322.17 397.36,-397.36 834.52,-737.71 1315.63,-1018.65 481.12,-280.36 1002.03,-497.15 1559.76,-654.55 557.14,-156.81 1135.07,-237 1739.73,-237zm10.1 2184.02c-601.1,0 -1165.96,113.45 -1693.4,340.94 -527.45,226.89 -984.8,537.54 -1375.63,931.34 -390.83,390.83 -697.91,851.75 -925.4,1379.19 -226.9,527.44 -340.34,1092.31 -340.34,1689.84 0,607.63 113.44,1175.46 340.34,1702.9 227.49,528.04 534.57,985.4 925.4,1376.23 390.83,390.23 848.18,697.91 1375.63,921.24 527.44,223.93 1092.3,334.4 1693.4,334.4 597.53,0 1161.8,-110.47 1689.24,-334.4 528.03,-223.33 988.95,-531.01 1379.19,-921.24 394.39,-390.83 705.04,-848.19 931.93,-1376.23 226.9,-527.44 340.35,-1095.27 340.35,-1702.9 0,-597.53 -113.45,-1162.4 -340.35,-1689.84 -226.89,-527.44 -537.54,-988.36 -931.93,-1379.19 -390.24,-393.8 -851.16,-704.45 -1379.19,-931.34 -527.44,-227.49 -1091.71,-340.94 -1689.24,-340.94zm11043.03 5149.1c0,494.78 100.38,955.1 300.54,1382.76 200.76,427.66 471.02,798.29 811.36,1115.47 337.37,317.18 731.77,567.83 1179.03,751.37 447.25,183.54 915.3,277.38 1402.35,277.38 484.68,0 942.03,-90.28 1369.09,-274.41 427.66,-183.54 798.3,-433.6 1108.94,-751.37 314.21,-317.18 564.27,-690.78 747.8,-1114.88 184.13,-427.65 273.82,-888.57 273.82,-1382.75l0 -6164.2c0,-153.83 30.3,-297.57 87.32,-427.65 56.42,-130.08 133.05,-243.53 233.43,-340.94 103.35,-96.82 217.39,-169.87 347.47,-223.33 133.64,-53.46 273.81,-80.19 430.62,-80.19 146.71,0 287.48,26.73 421.12,80.19 133.05,53.46 250.06,126.51 346.88,223.33 96.82,97.41 174.03,210.86 230.46,340.94 57.02,130.08 86.72,273.82 86.72,427.65l0 6170.73c0,781.66 -150.27,1519.37 -447.26,2214.31 -296.98,694.35 -701.47,1299.01 -1215.85,1813.39 -517.34,514.37 -1118.44,921.24 -1809.81,1221.79 -694.35,300.54 -1432.65,450.82 -2220.25,450.82 -791.76,0 -1539.56,-150.28 -2247.57,-450.82 -708.01,-300.55 -1332.27,-707.42 -1870.4,-1221.79 -537.54,-517.94 -964.61,-1122.01 -1278.81,-1816.95 -313.62,-694.35 -471.02,-1432.65 -471.02,-2213.72l0 -6158.25c0,-146.71 30.29,-286.89 87.31,-420.53 56.43,-133.64 133.05,-247.09 229.87,-343.91 97.41,-96.82 210.86,-177 340.94,-234.02 133.64,-56.43 273.81,-83.16 430.62,-83.16 147.31,0 287.48,26.73 421.12,83.16 133.05,57.02 250.06,133.64 354.01,230.46 99.78,96.81 177,213.83 233.43,347.47 57.02,133.64 86.72,273.82 86.72,420.53l0 6151.12zm12272.54 -6141.03c0,-153.24 29.7,-296.98 86.72,-430.62 56.42,-133.64 133.64,-250.66 230.46,-347.47 96.81,-96.82 210.26,-173.44 340.34,-230.46 130.08,-56.43 270.85,-83.16 424.09,-83.16l3676.65 0c661.09,0 1285.94,123.55 1870.41,367.07 584.46,244.13 1091.71,577.93 1525.9,1002.03 434.19,424.09 778.09,924.81 1028.75,1499.17 250.06,574.37 373.6,1192.09 373.6,1853.77 0,467.46 -63.55,914.71 -190.07,1338.81 -127.11,424.09 -304.11,818.48 -534.57,1179.02 -230.46,360.54 -507.25,684.25 -831.55,971.73 -323.71,286.89 -681.28,527.45 -1068.55,721.08l2004.05 2037.31c113.44,113.45 196.6,236.99 250.06,370.63 53.45,133.65 80.18,270.26 77.21,410.44 -3.56,140.17 -33.85,277.38 -87.31,411.02 -53.46,133.64 -133.64,250.06 -239.96,350.44 -106.92,106.92 -220.96,187.1 -344.5,240.56 -123.55,53.46 -250.06,80.18 -377.17,80.18 -126.52,0 -250.06,-26.72 -374.2,-80.18 -123.55,-53.46 -239.96,-133.64 -346.88,-240.56l-3038.73 -3075.56 -2270.74 0 0 2317.66c0,153.84 -30.29,294.01 -87.31,424.09 -56.43,130.08 -133.64,240.56 -233.43,333.81 -103.35,93.85 -220.36,170.47 -354,226.9 -133.65,57.02 -273.82,83.75 -421.13,83.75 -156.8,0 -296.98,-30.3 -430.62,-86.72 -130.08,-57.02 -243.53,-130.08 -340.34,-223.93 -96.82,-93.25 -174.04,-206.7 -230.46,-337.37 -57.02,-130.08 -86.72,-270.26 -86.72,-424.09l0 -10659.35zm2184.01 1092.31l0 5068.92 2604.55 0c360.53,0 697.91,-66.52 1011.52,-203.73 317.18,-136.61 591,-323.71 825.02,-557.74 234.02,-230.46 414,-500.71 547.64,-804.82 133.64,-300.55 200.17,-624.26 200.17,-964.61 0,-337.37 -66.53,-661.68 -203.73,-968.76 -136.62,-307.08 -320.15,-577.33 -554.18,-807.79 -233.42,-234.03 -507.24,-421.13 -817.89,-557.74 -314.21,-137.2 -644.45,-203.73 -998.46,-203.73l-2614.64 0zm21879.36 8194.97l-5730.59 0 -751.37 1803.29c-59.99,140.17 -143.74,260.15 -250.65,360.53 -106.92,99.79 -223.33,173.44 -354.01,220.37 -130.07,46.92 -270.25,66.52 -420.52,63.55 -150.28,-3.56 -296.99,-33.86 -437.76,-93.85 -146.71,-59.99 -266.69,-143.74 -360.54,-247.09 -93.25,-103.35 -160.37,-216.8 -203.73,-343.9 -43.36,-127.11 -59.99,-263.73 -49.89,-410.44 10.1,-147.3 43.36,-291.04 103.35,-431.22l4588.39 -10639.14c93.85,-213.83 226.9,-377.17 397.37,-490.62 170.47,-114.04 367.66,-170.47 594.56,-170.47 213.83,0 407.46,56.43 580.9,170.47 174.03,113.45 307.08,273.82 400.93,480.52l4607.99 10649.24c120.58,280.95 140.77,557.74 57.02,831.56 -83.75,273.82 -263.72,474.58 -537.54,601.09 -140.18,59.99 -283.92,90.29 -430.63,93.85 -147.3,2.97 -287.48,-20.19 -421.12,-70.09 -133.64,-50.49 -253.62,-123.54 -360.54,-220.95 -106.91,-96.82 -193.63,-213.24 -260.75,-353.41l-760.87 -1803.29zm-4849.14 -2184.02l3947.5 0 -1963.65 -4718.48 -1983.85 4718.48zm13494.92 -6010.95l0 9567.04c0,153.83 -30.29,297.57 -86.72,427.65 -57.02,130.08 -133.64,240.56 -234.02,333.81 -103.35,93.85 -220.36,170.47 -354,226.9 -133.65,57.02 -276.79,83.75 -430.63,83.75 -150.27,0 -287.48,-26.73 -421.12,-83.75 -130.08,-56.43 -243.53,-133.05 -340.35,-226.9 -96.81,-93.25 -173.43,-203.73 -230.45,-333.81 -56.43,-130.08 -86.72,-273.82 -86.72,-427.65l0 -9567.04 -3085.66 0c-153.84,0 -294.01,-30.29 -424.09,-86.72 -130.08,-57.02 -243.53,-133.64 -337.38,-234.02 -93.25,-103.35 -166.9,-216.8 -223.33,-347.47 -57.02,-133.65 -87.31,-273.82 -87.31,-430.63 0,-146.71 30.29,-286.89 87.31,-420.53 56.43,-133.64 130.08,-250.65 223.33,-347.47 93.85,-96.82 207.3,-173.44 337.38,-230.46 130.08,-57.02 270.25,-86.72 424.09,-86.72l8345.23 0c146.71,0 286.89,29.7 420.53,86.72 133.64,57.02 250.65,133.64 347.47,234.03 96.82,103.35 173.44,220.36 230.46,354 56.43,133.05 83.16,273.82 83.16,420.53 0,156.81 -26.73,296.98 -83.16,430.63 -57.02,130.07 -133.64,244.12 -230.46,340.93 -96.82,96.82 -213.83,173.44 -347.47,230.46 -133.64,56.43 -273.82,86.72 -420.53,86.72l-3075.56 0zm11050.16 0l0 9567.04c0,153.83 -30.29,297.57 -86.72,427.65 -57.02,130.08 -133.64,240.56 -234.02,333.81 -103.35,93.85 -220.36,170.47 -354.01,226.9 -133.64,57.02 -276.79,83.75 -430.62,83.75 -150.28,0 -287.48,-26.73 -421.13,-83.75 -130.07,-56.43 -243.52,-133.05 -340.34,-226.9 -96.81,-93.25 -173.44,-203.73 -230.46,-333.81 -56.42,-130.08 -86.72,-273.82 -86.72,-427.65l0 -9567.04 -3085.65 0c-153.84,0 -294.02,-30.29 -424.1,-86.72 -130.07,-57.02 -243.52,-133.64 -337.37,-234.02 -93.25,-103.35 -166.9,-216.8 -223.33,-347.47 -57.02,-133.65 -87.31,-273.82 -87.31,-430.63 0,-146.71 30.29,-286.89 87.31,-420.53 56.43,-133.64 130.08,-250.65 223.33,-347.47 93.85,-96.82 207.3,-173.44 337.37,-230.46 130.08,-57.02 270.26,-86.72 424.1,-86.72l8345.23 0c146.71,0 286.88,29.7 420.53,86.72 133.64,57.02 250.65,133.64 347.47,234.03 96.81,103.35 173.44,220.36 230.46,354 56.42,133.05 83.15,273.82 83.15,420.53 0,156.81 -26.73,296.98 -83.15,430.63 -57.02,130.07 -133.65,244.12 -230.46,340.93 -96.82,96.82 -213.83,173.44 -347.47,230.46 -133.65,56.43 -273.82,86.72 -420.53,86.72l-3075.56 0zm7974.6 9567.04c0,153.83 -30.3,294.01 -86.72,424.09 -57.02,130.67 -133.64,244.12 -234.03,337.37 -103.35,93.85 -220.36,166.91 -354,223.93 -133.64,56.42 -273.82,86.72 -420.53,86.72 -157.4,0 -297.58,-30.3 -431.22,-86.72 -130.08,-57.02 -243.52,-130.08 -340.34,-223.93 -96.82,-93.25 -173.44,-206.7 -230.46,-337.37 -56.43,-130.08 -86.72,-270.26 -86.72,-424.09l0 -10678.95c0,-153.83 30.29,-297.57 86.72,-427.65 57.02,-130.08 133.64,-243.53 230.46,-340.94 96.82,-96.82 210.26,-169.87 340.34,-223.33 133.64,-53.46 273.82,-80.19 431.22,-80.19 146.71,0 286.89,26.73 420.53,80.19 133.64,53.46 250.65,126.51 354,223.33 100.39,97.41 177.01,210.86 234.03,340.94 56.42,130.08 86.72,273.82 86.72,427.65l0 10678.95zm7984.69 -9567.04l0 9567.04c0,153.83 -30.29,297.57 -86.72,427.65 -57.02,130.08 -133.64,240.56 -234.02,333.81 -103.35,93.85 -220.36,170.47 -354,226.9 -133.65,57.02 -276.79,83.75 -430.63,83.75 -150.27,0 -287.48,-26.73 -421.12,-83.75 -130.08,-56.43 -243.53,-133.05 -340.35,-226.9 -96.81,-93.25 -173.43,-203.73 -230.45,-333.81 -56.43,-130.08 -86.72,-273.82 -86.72,-427.65l0 -9567.04 -3085.66 0c-153.84,0 -294.01,-30.29 -424.09,-86.72 -130.08,-57.02 -243.53,-133.64 -337.38,-234.02 -93.25,-103.35 -166.9,-216.8 -223.33,-347.47 -57.02,-133.65 -87.31,-273.82 -87.31,-430.63 0,-146.71 30.29,-286.89 87.31,-420.53 56.43,-133.64 130.08,-250.65 223.33,-347.47 93.85,-96.82 207.3,-173.44 337.38,-230.46 130.08,-57.02 270.25,-86.72 424.09,-86.72l8345.23 0c146.71,0 286.89,29.7 420.53,86.72 133.64,57.02 250.65,133.64 347.47,234.03 96.82,103.35 173.44,220.36 230.46,354 56.43,133.05 83.16,273.82 83.16,420.53 0,156.81 -26.73,296.98 -83.16,430.63 -57.02,130.07 -133.64,244.12 -230.46,340.93 -96.82,96.82 -213.83,173.44 -347.47,230.46 -133.64,56.43 -273.82,86.72 -420.53,86.72l-3075.56 0z"/>
  <path class="fil1" d="M293842.21 55472.37c5661.58,1005.66 12321.33,4601.32 16684.52,8117.9l14.64 -14.99c6514.26,5419.2 16561.17,823.59 16561.17,-7770.9 0,-2727.99 -1081.51,-5203.04 -2838.64,-7020.86l8.03 -11.42c-9947.13,-11995.95 -24963.95,-19636.37 -41765.21,-19636.37 -29950.45,0 -54230.22,24279.81 -54230.22,54230.32 0,32696.17 28690.44,57907.57 61118.8,53796.94 -24709.06,2907.91 -46419,-16353.98 -46419,-41230.51 0,-26815.73 24975.56,-46418.19 50865.91,-40460.11z"/>
  <path class="fil2" d="M292544.91 136668.44c10746.72,-2112.17 20682.36,-8539.31 28200.15,-17026.39l0 -4463.98c-22393.61,17602.44 -60389.63,4267.35 -58497.12,-32430.64l1611.39 -7503.96c2961.65,-13696.08 18882.03,-23236.95 33845.41,-18772.97 -24813,-8484.01 -54727.47,9476.35 -54727.47,39461.48 0,24875.99 21706.96,44138.98 46418.58,41231.09 -1.53,0 2102.95,-330.26 3149.06,-494.63z"/>
  <path class="fil3" d="M262046.27 86599.72c0,20117.96 16331.27,36296.83 36296.75,36296.83 8556.46,0 16290.94,-2913.45 22401.62,-7717.72l0 8822.44c0,3824.14 3129.24,6952.31 6952.84,6952.31 3823.41,0 6952.65,-3128.89 6952.65,-6952.31l0 -37854.4c0,-3823.42 -3128.52,-6952.31 -6952.83,-6952.31l-36706.95 0 0 26.24c-3540.67,305.05 -6319.34,3275.43 -6319.34,6895.19 0,3619.76 2778.67,6589.96 6319.34,6895.02l0 89.07 23274.3 0c-4218.08,9208.17 -13514.94,15604.64 -24305.83,15604.64 -14162.18,0 -27005.79,-12459.15 -27005.79,-26530.5 0,-2393.83 315.41,-4713.59 903.92,-6922.14 -1174.34,3570.31 -1810.68,7384.63 -1810.68,11347.64z"/>
 </g>
</svg>
